<?xml version="1.0" standalone="no"?>
<!DOCTYPE svg PUBLIC "-//W3C//DTD SVG 20010904//EN"
 "http://www.w3.org/TR/2001/REC-SVG-20010904/DTD/svg10.dtd">
<svg version="1.0" xmlns="http://www.w3.org/2000/svg"
 width="544.000000pt" height="544.000000pt" viewBox="0 0 544.000000 544.000000"
 preserveAspectRatio="xMidYMid meet">
<metadata>
Created by potrace 1.14, written by Peter Selinger 2001-2017
</metadata>
<g transform="translate(0.000000,544.000000) scale(0.100000,-0.100000)"
fill="#000000" stroke="none">
<path d="M2366 5374 c-759 -97 -1461 -536 -1890 -1182 -232 -349 -375 -733
-431 -1155 -20 -158 -20 -516 0 -674 56 -422 199 -806 430 -1153 111 -166 193
-267 334 -408 373 -375 855 -637 1361 -741 223 -45 337 -54 617 -48 204 4 273
9 388 30 818 146 1501 632 1905 1355 165 295 283 666 319 1004 16 145 14 483
-4 628 -74 600 -346 1155 -774 1580 -138 138 -243 223 -411 335 -352 236 -776
390 -1192 435 -135 14 -520 11 -652 -6z m-67 -1765 l416 -1206 5 416 5 416
580 3 c618 3 676 0 820 -45 207 -64 350 -208 402 -406 25 -94 23 -254 -5 -343
-36 -117 -136 -245 -241 -307 l-33 -20 59 -22 c296 -107 454 -386 413 -729
-40 -337 -228 -545 -568 -628 -83 -21 -114 -22 -759 -25 l-673 -4 0 785 0 786
-272 2 -272 3 -92 280 -91 280 -452 0 -453 0 -87 -265 c-48 -146 -90 -273 -94
-282 -6 -17 -29 -18 -287 -18 -154 0 -280 4 -280 8 0 7 849 2467 865 2504 4 9
19 19 33 21 15 2 166 4 336 3 l308 -1 417 -1206z"/>
<path d="M1188 4558 c-37 -106 -220 -638 -409 -1183 -188 -545 -344 -998 -347
-1008 -4 -16 9 -17 212 -15 l217 3 90 275 c50 151 94 278 98 283 4 4 227 6
497 5 l489 -3 93 -282 93 -283 219 0 c132 0 220 4 220 9 0 8 -285 837 -785
2284 l-37 107 -292 0 -291 0 -67 -192z m563 -773 c92 -280 168 -513 168 -517
1 -5 -170 -8 -379 -8 -209 0 -380 3 -380 8 0 4 75 238 167 520 l167 513 45 -3
45 -3 167 -510z"/>
<path d="M1392 3782 c-79 -240 -142 -440 -142 -444 0 -5 131 -8 291 -8 l290 0
-6 23 c-34 111 -279 854 -284 859 -4 5 -71 -189 -149 -430z"/>
<path d="M2790 1974 l0 -1205 628 4 c687 4 688 4 850 67 198 76 332 238 376
452 20 96 20 263 1 344 -47 200 -179 336 -395 409 -64 22 -65 22 -68 62 -3 39
-2 40 56 76 67 42 163 139 192 197 50 98 65 276 35 395 -37 140 -132 258 -259
320 -157 77 -244 85 -888 85 l-528 0 0 -1206z m1125 856 c122 -61 171 -157
163 -319 -5 -101 -30 -167 -85 -223 -80 -82 -180 -100 -533 -96 l-245 3 -3
338 -2 338 318 -3 318 -3 69 -35z m82 -965 c113 -40 200 -138 224 -253 6 -31
9 -99 7 -151 -3 -76 -9 -107 -30 -152 -50 -108 -133 -174 -253 -200 -42 -9
-160 -13 -395 -13 l-335 -1 -3 398 -2 398 367 -4 c328 -3 374 -5 420 -22z"/>
<path d="M3280 2536 l0 -276 258 0 c293 0 337 7 402 66 53 48 75 110 74 204
-1 139 -38 207 -136 251 -51 23 -65 24 -325 27 l-273 4 0 -276z"/>
<path d="M3280 1495 l0 -335 303 0 c327 0 380 6 454 54 94 59 127 130 128 271
0 55 -6 119 -13 142 -32 107 -125 175 -262 193 -41 5 -195 10 -342 10 l-268 0
0 -335z"/>
</g>
</svg>
